<svg width="636" height="172" xmlns="http://www.w3.org/2000/svg" xmlns:xlink="http://www.w3.org/1999/xlink" overflow="hidden"><defs><clipPath id="clip0"><rect x="322" y="274" width="636" height="172"/></clipPath></defs><g clip-path="url(#clip0)" transform="translate(-322 -274)"><path d="M354.635 329.359 354.635 363.064 364.7 363.064C368.077 363.064 370.881 362.631 373.11 361.765 375.34 360.899 377.213 359.698 378.728 358.161 380.243 356.624 381.39 354.784 382.17 352.641 382.949 350.498 383.339 348.171 383.339 345.66 383.339 342.239 382.7 339.382 381.423 337.087 380.146 334.793 378.565 333.083 376.682 331.957 374.799 330.831 372.851 330.117 370.837 329.814 368.824 329.511 366.865 329.359 364.96 329.359ZM779.487 328.45C774.644 328.45 770.58 329.359 767.294 331.178 764.007 332.996 761.337 335.421 759.283 338.451 757.23 341.482 755.76 345.021 754.873 349.069 753.987 353.117 753.543 357.371 753.543 361.83 753.543 366.766 753.954 371.312 754.776 375.468 755.597 379.624 756.981 383.207 758.927 386.216 760.873 389.225 763.478 391.562 766.743 393.229 770.007 394.896 774.104 395.729 779.033 395.729 783.919 395.729 788.027 394.82 791.356 393.002 794.686 391.184 797.367 388.727 799.399 385.631 801.431 382.536 802.88 378.953 803.744 374.883 804.609 370.814 805.042 366.506 805.042 361.96 805.042 357.198 804.62 352.771 803.777 348.679 802.934 344.588 801.528 341.038 799.561 338.029 797.593 335.02 794.967 332.671 791.681 330.983 788.395 329.294 784.33 328.45 779.487 328.45ZM445.487 328.45C440.644 328.45 436.58 329.359 433.294 331.178 430.007 332.996 427.337 335.421 425.283 338.451 423.23 341.482 421.76 345.021 420.873 349.069 419.987 353.117 419.543 357.371 419.543 361.83 419.543 366.766 419.954 371.312 420.776 375.468 421.597 379.624 422.981 383.207 424.927 386.216 426.873 389.225 429.478 391.562 432.743 393.229 436.007 394.896 440.104 395.729 445.033 395.729 449.919 395.729 454.027 394.82 457.356 393.002 460.686 391.184 463.367 388.727 465.399 385.631 467.431 382.536 468.88 378.953 469.745 374.883 470.609 370.814 471.042 366.506 471.042 361.96 471.042 357.198 470.62 352.771 469.777 348.679 468.934 344.588 467.528 341.038 465.561 338.029 463.593 335.02 460.967 332.671 457.681 330.983 454.395 329.294 450.33 328.45 445.487 328.45ZM681.438 320.138 728.196 320.138C729.365 320.138 730.285 320.473 730.956 321.144 731.627 321.815 731.963 322.844 731.963 324.229L731.963 326.762C731.963 327.454 731.919 328.071 731.833 328.613 731.746 329.154 731.595 329.706 731.378 330.269 731.162 330.831 730.87 331.438 730.501 332.087 730.134 332.736 729.646 333.494 729.04 334.36L690.465 394.755 731.508 394.755C732.244 394.755 732.807 395.123 733.197 395.859 733.586 396.595 733.781 397.808 733.781 399.496 733.781 400.319 733.738 401.022 733.651 401.607 733.565 402.191 733.424 402.678 733.229 403.068 733.034 403.458 732.796 403.739 732.515 403.912 732.233 404.085 731.898 404.172 731.508 404.172L681.893 404.172C680.767 404.172 679.858 403.826 679.165 403.133 678.473 402.44 678.126 401.336 678.126 399.821L678.126 397.418C678.126 396.855 678.159 396.336 678.224 395.859 678.289 395.383 678.429 394.874 678.646 394.333 678.862 393.792 679.165 393.186 679.555 392.515 679.945 391.844 680.421 391.054 680.984 390.145L719.754 329.489 681.438 329.489C681.005 329.489 680.637 329.403 680.334 329.229 680.031 329.056 679.782 328.786 679.587 328.418 679.393 328.05 679.252 327.573 679.165 326.989 679.079 326.405 679.035 325.723 679.035 324.943 679.035 324.077 679.079 323.341 679.165 322.735 679.252 322.129 679.393 321.631 679.587 321.242 679.782 320.852 680.031 320.571 680.334 320.397 680.637 320.224 681.005 320.138 681.438 320.138ZM612.477 320.138 670.924 320.138C671.27 320.138 671.584 320.224 671.866 320.397 672.147 320.571 672.385 320.852 672.58 321.242 672.775 321.631 672.916 322.14 673.002 322.768 673.089 323.396 673.132 324.121 673.132 324.943 673.132 325.766 673.089 326.48 673.002 327.086 672.916 327.693 672.775 328.18 672.58 328.548 672.385 328.916 672.147 329.186 671.866 329.359 671.584 329.533 671.27 329.619 670.924 329.619L647.285 329.619 647.285 402.483C647.285 402.83 647.199 403.133 647.026 403.393 646.852 403.652 646.549 403.858 646.116 404.01 645.684 404.161 645.11 404.291 644.396 404.399 643.681 404.507 642.783 404.562 641.7 404.562 640.661 404.562 639.774 404.507 639.038 404.399 638.302 404.291 637.717 404.161 637.284 404.01 636.852 403.858 636.548 403.652 636.375 403.393 636.202 403.133 636.115 402.83 636.115 402.483L636.115 329.619 612.477 329.619C612.13 329.619 611.817 329.533 611.535 329.359 611.254 329.186 611.026 328.916 610.853 328.548 610.68 328.18 610.539 327.693 610.431 327.086 610.323 326.48 610.269 325.766 610.269 324.943 610.269 324.121 610.323 323.396 610.431 322.768 610.539 322.14 610.68 321.631 610.853 321.242 611.026 320.852 611.254 320.571 611.535 320.397 611.817 320.224 612.13 320.138 612.477 320.138ZM347.881 320.138 365.869 320.138C367.688 320.138 369.43 320.213 371.097 320.365 372.764 320.517 374.734 320.841 377.007 321.339 379.28 321.837 381.596 322.768 383.956 324.132 386.315 325.495 388.318 327.173 389.963 329.165 391.608 331.156 392.874 333.461 393.762 336.081 394.649 338.7 395.093 341.59 395.093 344.75 395.093 348.95 394.4 352.738 393.015 356.115 391.63 359.492 389.649 362.371 387.073 364.752 384.497 367.134 381.336 368.974 377.591 370.272 373.846 371.571 369.376 372.221 364.181 372.221L354.635 372.221 354.635 402.483C354.635 402.83 354.537 403.133 354.342 403.393 354.147 403.652 353.844 403.858 353.433 404.01 353.022 404.161 352.459 404.291 351.745 404.399 351.03 404.507 350.132 404.562 349.05 404.562 347.967 404.562 347.069 404.507 346.355 404.399 345.64 404.291 345.067 404.161 344.634 404.01 344.201 403.858 343.898 403.652 343.724 403.393 343.551 403.133 343.465 402.83 343.465 402.483L343.465 324.943C343.465 323.212 343.919 321.978 344.828 321.242 345.738 320.506 346.755 320.138 347.881 320.138ZM892.495 319.943C893.5 319.943 894.368 319.986 895.099 320.073 895.83 320.159 896.401 320.3 896.812 320.495 897.224 320.69 897.521 320.917 897.703 321.177 897.886 321.437 897.977 321.718 897.977 322.021L897.977 399.561C897.977 400.427 897.832 401.163 897.541 401.769 897.25 402.375 896.87 402.873 896.4 403.263 895.929 403.652 895.403 403.934 894.821 404.107 894.239 404.28 893.657 404.367 893.074 404.367L889.381 404.367C888.216 404.367 887.198 404.248 886.324 404.01 885.451 403.771 884.623 403.338 883.839 402.711 883.056 402.083 882.272 401.228 881.489 400.146 880.705 399.063 879.874 397.678 878.994 395.989L853.359 348.192C852.018 345.725 850.668 343.138 849.306 340.432 847.945 337.726 846.678 335.096 845.505 332.542L845.375 332.542C845.461 335.659 845.526 338.841 845.57 342.088 845.613 345.335 845.635 348.56 845.635 351.764L845.635 402.483C845.635 402.786 845.543 403.079 845.361 403.36 845.178 403.642 844.87 403.858 844.436 404.01 844.002 404.161 843.431 404.291 842.722 404.399 842.014 404.507 841.112 404.562 840.015 404.562 838.919 404.562 838.016 404.507 837.308 404.399 836.6 404.291 836.041 404.161 835.63 404.01 835.218 403.858 834.921 403.642 834.739 403.36 834.556 403.079 834.465 402.786 834.465 402.483L834.465 324.943C834.465 323.212 834.956 321.978 835.94 321.242 836.923 320.506 837.995 320.138 839.157 320.138L844.653 320.138C845.949 320.138 847.032 320.246 847.904 320.462 848.776 320.679 849.558 321.036 850.25 321.534 850.942 322.032 851.613 322.725 852.261 323.612 852.909 324.5 853.589 325.614 854.3 326.957L874.008 363.843C875.221 366.095 876.393 368.292 877.523 370.435 878.653 372.578 879.74 374.688 880.787 376.767 881.833 378.845 882.868 380.89 883.893 382.904 884.918 384.917 885.933 386.941 886.937 388.976L887.002 388.976C886.916 385.555 886.862 381.994 886.84 378.293 886.818 374.591 886.807 371.03 886.807 367.61L886.807 322.021C886.807 321.718 886.899 321.437 887.081 321.177 887.264 320.917 887.572 320.69 888.006 320.495 888.44 320.3 889.011 320.159 889.72 320.073 890.428 319.986 891.353 319.943 892.495 319.943ZM592.495 319.943C593.5 319.943 594.368 319.986 595.099 320.073 595.83 320.159 596.401 320.3 596.812 320.495 597.224 320.69 597.521 320.917 597.703 321.177 597.886 321.437 597.977 321.718 597.977 322.021L597.977 399.561C597.977 400.427 597.832 401.163 597.541 401.769 597.25 402.375 596.87 402.873 596.399 403.263 595.929 403.652 595.403 403.934 594.821 404.107 594.239 404.28 593.657 404.367 593.074 404.367L589.381 404.367C588.217 404.367 587.198 404.248 586.324 404.01 585.451 403.771 584.623 403.338 583.839 402.711 583.056 402.083 582.273 401.228 581.489 400.146 580.705 399.063 579.874 397.678 578.994 395.989L553.359 348.192C552.018 345.725 550.668 343.138 549.306 340.432 547.945 337.726 546.678 335.096 545.505 332.542L545.375 332.542C545.461 335.659 545.526 338.841 545.57 342.088 545.613 345.335 545.635 348.56 545.635 351.764L545.635 402.483C545.635 402.786 545.543 403.079 545.361 403.36 545.178 403.642 544.87 403.858 544.436 404.01 544.002 404.161 543.431 404.291 542.722 404.399 542.014 404.507 541.112 404.562 540.015 404.562 538.919 404.562 538.016 404.507 537.308 404.399 536.6 404.291 536.041 404.161 535.63 404.01 535.218 403.858 534.921 403.642 534.739 403.36 534.556 403.079 534.465 402.786 534.465 402.483L534.465 324.943C534.465 323.212 534.956 321.978 535.94 321.242 536.923 320.506 537.995 320.138 539.157 320.138L544.653 320.138C545.949 320.138 547.032 320.246 547.904 320.462 548.776 320.679 549.558 321.036 550.25 321.534 550.942 322.032 551.613 322.725 552.261 323.612 552.909 324.5 553.589 325.614 554.3 326.957L574.008 363.843C575.221 366.095 576.393 368.292 577.523 370.435 578.653 372.578 579.74 374.688 580.787 376.767 581.833 378.845 582.868 380.89 583.893 382.904 584.918 384.917 585.933 386.941 586.937 388.976L587.002 388.976C586.916 385.555 586.862 381.994 586.84 378.293 586.818 374.591 586.807 371.03 586.807 367.61L586.807 322.021C586.807 321.718 586.899 321.437 587.081 321.177 587.264 320.917 587.572 320.69 588.006 320.495 588.44 320.3 589.011 320.159 589.72 320.073 590.428 319.986 591.353 319.943 592.495 319.943ZM506.05 319.748C507.132 319.748 508.03 319.802 508.745 319.91 509.459 320.019 510.033 320.148 510.466 320.3 510.899 320.452 511.202 320.657 511.375 320.917 511.548 321.177 511.635 321.48 511.635 321.826L511.635 402.483C511.635 402.83 511.548 403.133 511.375 403.393 511.202 403.652 510.899 403.858 510.466 404.01 510.033 404.161 509.459 404.291 508.745 404.399 508.03 404.507 507.132 404.562 506.05 404.562 505.011 404.562 504.123 404.507 503.387 404.399 502.651 404.291 502.067 404.161 501.634 404.01 501.201 403.858 500.898 403.652 500.724 403.393 500.551 403.133 500.465 402.83 500.465 402.483L500.465 321.826C500.465 321.48 500.562 321.177 500.757 320.917 500.952 320.657 501.276 320.452 501.731 320.3 502.186 320.148 502.77 320.019 503.484 319.91 504.199 319.802 505.054 319.748 506.05 319.748ZM780.169 318.904C786.36 318.904 791.75 319.835 796.34 321.696 800.929 323.558 804.75 326.275 807.802 329.846 810.854 333.418 813.127 337.834 814.621 343.094 816.114 348.355 816.861 354.383 816.861 361.181 816.861 367.978 816.06 374.104 814.458 379.559 812.856 385.014 810.464 389.657 807.282 393.489 804.1 397.321 800.106 400.265 795.301 402.321 790.495 404.378 784.888 405.406 778.481 405.406 772.16 405.406 766.694 404.464 762.083 402.581 757.472 400.698 753.662 397.959 750.653 394.366 747.644 390.772 745.404 386.313 743.932 380.988 742.46 375.663 741.724 369.536 741.724 362.609 741.724 355.985 742.525 349.967 744.127 344.556 745.729 339.144 748.131 334.544 751.335 330.756 754.539 326.967 758.544 324.045 763.349 321.989 768.155 319.932 773.762 318.904 780.169 318.904ZM446.169 318.904C452.36 318.904 457.75 319.835 462.34 321.696 466.929 323.558 470.75 326.275 473.802 329.846 476.854 333.418 479.127 337.834 480.621 343.094 482.114 348.355 482.861 354.383 482.861 361.181 482.861 367.978 482.06 374.104 480.458 379.559 478.856 385.014 476.464 389.657 473.282 393.489 470.1 397.321 466.106 400.265 461.301 402.321 456.495 404.378 450.888 405.406 444.481 405.406 438.16 405.406 432.694 404.464 428.083 402.581 423.472 400.698 419.662 397.959 416.653 394.366 413.644 390.772 411.404 386.313 409.932 380.988 408.46 375.663 407.724 369.536 407.724 362.609 407.724 355.985 408.525 349.967 410.127 344.556 411.729 339.144 414.131 334.544 417.335 330.756 420.539 326.967 424.544 324.045 429.349 321.989 434.155 319.932 439.762 318.904 446.169 318.904Z" stroke="#0D0D0D" stroke-linejoin="round" stroke-miterlimit="10" fill="none" fill-rule="evenodd"/><text fill="#000000" fill-opacity="0" font-family="Arial,Arial_MSFontService,sans-serif" font-size="86.502" x="343.465" y="394.593">POINTZON</text></g></svg>