<?xml version="1.0" standalone="no"?>
<svg xmlns:xlink="http://www.w3.org/1999/xlink" id="wave" style="transform:rotate(180deg); transition: 0.3s" viewBox="0 0 1440 490" version="1.1" xmlns="http://www.w3.org/2000/svg"><defs><linearGradient id="sw-gradient-0" x1="0" x2="0" y1="1" y2="0"><stop stop-color="rgba(58.977, 0, 100.534, 1)" offset="0%"/><stop stop-color="rgba(113.486, 45.316, 155.177, 1)" offset="100%"/></linearGradient></defs><path style="transform:translate(0, 0px); opacity:1" fill="url(#sw-gradient-0)" d="M0,147L40,155.2C80,163,160,180,240,220.5C320,261,400,327,480,318.5C560,310,640,229,720,196C800,163,880,180,960,228.7C1040,278,1120,359,1200,359.3C1280,359,1360,278,1440,245C1520,212,1600,229,1680,204.2C1760,180,1840,114,1920,122.5C2000,131,2080,212,2160,204.2C2240,196,2320,98,2400,98C2480,98,2560,196,2640,212.3C2720,229,2800,163,2880,130.7C2960,98,3040,98,3120,147C3200,196,3280,294,3360,343C3440,392,3520,392,3600,400.2C3680,408,3760,425,3840,408.3C3920,392,4000,343,4080,302.2C4160,261,4240,229,4320,245C4400,261,4480,327,4560,367.5C4640,408,4720,425,4800,367.5C4880,310,4960,180,5040,122.5C5120,65,5200,82,5280,122.5C5360,163,5440,229,5520,220.5C5600,212,5680,131,5720,89.8L5760,49L5760,490L5720,490C5680,490,5600,490,5520,490C5440,490,5360,490,5280,490C5200,490,5120,490,5040,490C4960,490,4880,490,4800,490C4720,490,4640,490,4560,490C4480,490,4400,490,4320,490C4240,490,4160,490,4080,490C4000,490,3920,490,3840,490C3760,490,3680,490,3600,490C3520,490,3440,490,3360,490C3280,490,3200,490,3120,490C3040,490,2960,490,2880,490C2800,490,2720,490,2640,490C2560,490,2480,490,2400,490C2320,490,2240,490,2160,490C2080,490,2000,490,1920,490C1840,490,1760,490,1680,490C1600,490,1520,490,1440,490C1360,490,1280,490,1200,490C1120,490,1040,490,960,490C880,490,800,490,720,490C640,490,560,490,480,490C400,490,320,490,240,490C160,490,80,490,40,490L0,490Z"/></svg>